HIERARCHY
ROOT Root
{
  OFFSET 0.0 0.0 0.0
  CHANNELS 6 Xposition Yposition Zposition Zrotation Yrotation Xrotation
  JOINT Hips
  {
    OFFSET 0.0 100.0 0.0
    CHANNELS 6 Xposition Yposition Zposition Zrotation Yrotation Xrotation
    JOINT Spine1
    {
      OFFSET -0.013727 5.003763 -0.053727
      CHANNELS 3 Zrotation Yrotation Xrotation
      JOINT Spine2
      {
        OFFSET -0.0 7.125301 -0.029825
        CHANNELS 3 Zrotation Yrotation Xrotation
        JOINT Chest
        {
          OFFSET -1e-06 7.550063 -0.815971
          CHANNELS 3 Zrotation Yrotation Xrotation
          JOINT Neck1
          {
            OFFSET -0.181677 26.311295 -0.553348
            CHANNELS 3 Zrotation Yrotation Xrotation
            JOINT Neck2
            {
              OFFSET -3e-06 7.709397 2.302585
              CHANNELS 3 Zrotation Yrotation Xrotation
              JOINT Head
              {
                OFFSET -5e-06 6.128916 1.953709
                CHANNELS 3 Zrotation Yrotation Xrotation
                JOINT HeadEnd
                {
                  OFFSET 0.003598 16.065403 -1.835379
                  CHANNELS 3 Zrotation Yrotation Xrotation
                }
                JOINT Jaw
                {
                  OFFSET 0.002637 0.475592 3.094941
                  CHANNELS 3 Zrotation Yrotation Xrotation
                }
                JOINT LeftEye
                {
                  OFFSET 3.206381 5.380205 7.586883
                  CHANNELS 3 Zrotation Yrotation Xrotation
                }
                JOINT RightEye
                {
                  OFFSET -3.22244 5.361869 7.558234
                  CHANNELS 3 Zrotation Yrotation Xrotation
                }
              }
            }
          }
          JOINT LeftShoulder
          {
            OFFSET 1.621652 23.237164 5.113413
            CHANNELS 3 Zrotation Yrotation Xrotation
            JOINT LeftArm
            {
              OFFSET 14.919846 2e-06 -5.502326
              CHANNELS 3 Zrotation Yrotation Xrotation
              JOINT LeftForeArm
              {
                OFFSET 28.739307 0.0 -0.002588
                CHANNELS 3 Zrotation Yrotation Xrotation
                JOINT LeftHand
                {
                  OFFSET 27.093981 -1e-06 0.002609
                  CHANNELS 3 Zrotation Yrotation Xrotation
                  JOINT LeftHandThumb1
                  {
                    OFFSET 2.276482 -1.392045 3.191413
                    CHANNELS 3 Zrotation Yrotation Xrotation
                    JOINT LeftHandThumb2
                    {
                      OFFSET 4.012836 -1.828127 1.641654
                      CHANNELS 3 Zrotation Yrotation Xrotation
                      JOINT LeftHandThumb3
                      {
                        OFFSET 2.798515 0.0 -3e-06
                        CHANNELS 3 Zrotation Yrotation Xrotation
                        JOINT LeftHandThumbEnd
                        {
                          OFFSET 3.180793 -4e-06 4e-06
                          CHANNELS 3 Zrotation Yrotation Xrotation
                        }
                      }
                    }
                  }
                  JOINT LeftHandIndex1
                  {
                    OFFSET 3.247555 -0.531998 2.296169
                    CHANNELS 3 Zrotation Yrotation Xrotation
                    JOINT LeftHandIndex2
                    {
                      OFFSET 6.364578 0.01206 0.1786
                      CHANNELS 3 Zrotation Yrotation Xrotation
                      JOINT LeftHandIndex3
                      {
                        OFFSET 3.662364 0.0 0.0
                        CHANNELS 3 Zrotation Yrotation Xrotation
                        JOINT LeftHandIndex4
                        {
                          OFFSET 2.329242 4e-06 4e-06
                          CHANNELS 3 Zrotation Yrotation Xrotation
                          JOINT LeftHandIndexEnd
                          {
                            OFFSET 2.759615 -0.180537 -0.113024
                            CHANNELS 3 Zrotation Yrotation Xrotation
                          }
                        }
                      }
                    }
                  }
                  JOINT LeftHandMiddle1
                  {
                    OFFSET 3.163495 0.240981 1.000332
                    CHANNELS 3 Zrotation Yrotation Xrotation
                    JOINT LeftHandMiddle2
                    {
                      OFFSET 6.19078 -0.259278 -1.002548
                      CHANNELS 3 Zrotation Yrotation Xrotation
                      JOINT LeftHandMiddle3
                      {
                        OFFSET 4.35652 -4e-06 -1e-06
                        CHANNELS 3 Zrotation Yrotation Xrotation
                        JOINT LeftHandMiddle4
                        {
                          OFFSET 2.996877 -8e-06 0.0
                          CHANNELS 3 Zrotation Yrotation Xrotation
                          JOINT LeftHandMiddleEnd
                          {
                            OFFSET 2.304287 -0.294569 -0.031741
                            CHANNELS 3 Zrotation Yrotation Xrotation
                          }
                        }
                      }
                    }
                  }
                  JOINT LeftHandRing1
                  {
                    OFFSET 2.882643 -0.053652 -0.322543
                    CHANNELS 3 Zrotation Yrotation Xrotation
                    JOINT LeftHandRing2
                    {
                      OFFSET 5.854541 -0.486202 -1.373841
                      CHANNELS 3 Zrotation Yrotation Xrotation
                      JOINT LeftHandRing3
                      {
                        OFFSET 4.350578 0.0 3e-06
                        CHANNELS 3 Zrotation Yrotation Xrotation
                        JOINT LeftHandRing4
                        {
                          OFFSET 2.651321 7e-06 2e-06
                          CHANNELS 3 Zrotation Yrotation Xrotation
                          JOINT LeftHandRingEnd
                          {
                            OFFSET 1.936105 0.077687 -7.1e-05
                            CHANNELS 3 Zrotation Yrotation Xrotation
                          }
                        }
                      }
                    }
                  }
                  JOINT LeftHandPinky1
                  {
                    OFFSET 2.8655 -0.310005 -1.600378
                    CHANNELS 3 Zrotation Yrotation Xrotation
                    JOINT LeftHandPinky2
                    {
                      OFFSET 5.087849 -1.331141 -1.77123
                      CHANNELS 3 Zrotation Yrotation Xrotation
                      JOINT LeftHandPinky3
                      {
                        OFFSET 3.070974 4e-06 0.0
                        CHANNELS 3 Zrotation Yrotation Xrotation
                        JOINT LeftHandPinky4
                        {
                          OFFSET 1.549672 0.0 1e-06
                          CHANNELS 3 Zrotation Yrotation Xrotation
                          JOINT LeftHandPinkyEnd
                          {
                            OFFSET 1.944893 -0.157802 0.057219
                            CHANNELS 3 Zrotation Yrotation Xrotation
                          }
                        }
                      }
                    }
                  }
                }
              }
            }
          }
          JOINT RightShoulder
          {
            OFFSET -1.380118 23.180309 5.214158
            CHANNELS 3 Zrotation Yrotation Xrotation
            JOINT RightArm
            {
              OFFSET -15.037196 1.2e-05 -5.545604
              CHANNELS 3 Zrotation Yrotation Xrotation
              JOINT RightForeArm
              {
                OFFSET -28.736639 2e-06 -0.002597
                CHANNELS 3 Zrotation Yrotation Xrotation
                JOINT RightHand
                {
                  OFFSET -27.133619 -0.0 0.002613
                  CHANNELS 3 Zrotation Yrotation Xrotation
                  JOINT RightHandThumb1
                  {
                    OFFSET -2.274032 -1.383988 3.163127
                    CHANNELS 3 Zrotation Yrotation Xrotation
                    JOINT RightHandThumb2
                    {
                      OFFSET -4.011429 -1.827466 1.640914
                      CHANNELS 3 Zrotation Yrotation Xrotation
                      JOINT RightHandThumb3
                      {
                        OFFSET -2.794935 -4e-06 -3e-06
                        CHANNELS 3 Zrotation Yrotation Xrotation
                        JOINT RightHandThumbEnd
                        {
                          OFFSET -3.183852 4e-06 1e-06
                          CHANNELS 3 Zrotation Yrotation Xrotation
                        }
                      }
                    }
                  }
                  JOINT RightHandIndex1
                  {
                    OFFSET -3.253266 -0.520057 2.282866
                    CHANNELS 3 Zrotation Yrotation Xrotation
                    JOINT RightHandIndex2
                    {
                      OFFSET -6.341917 0.012471 0.178266
                      CHANNELS 3 Zrotation Yrotation Xrotation
                      JOINT RightHandIndex3
                      {
                        OFFSET -3.654871 -8e-06 -0.0
                        CHANNELS 3 Zrotation Yrotation Xrotation
                        JOINT RightHandIndex4
                        {
                          OFFSET -2.327586 0.0 1e-06
                          CHANNELS 3 Zrotation Yrotation Xrotation
                          JOINT RightHandIndexEnd
                          {
                            OFFSET -2.76179 -0.180656 -0.113078
                            CHANNELS 3 Zrotation Yrotation Xrotation
                          }
                        }
                      }
                    }
                  }
                  JOINT RightHandMiddle1
                  {
                    OFFSET -3.168106 0.246593 1.00103
                    CHANNELS 3 Zrotation Yrotation Xrotation
                    JOINT RightHandMiddle2
                    {
                      OFFSET -6.180828 -0.258836 -1.000895
                      CHANNELS 3 Zrotation Yrotation Xrotation
                      JOINT RightHandMiddle3
                      {
                        OFFSET -4.348901 0.0 -0.0
                        CHANNELS 3 Zrotation Yrotation Xrotation
                        JOINT RightHandMiddle4
                        {
                          OFFSET -3.00024 -4e-06 -2e-06
                          CHANNELS 3 Zrotation Yrotation Xrotation
                          JOINT RightHandMiddleEnd
                          {
                            OFFSET -2.30252 -0.29437 -0.031706
                            CHANNELS 3 Zrotation Yrotation Xrotation
                          }
                        }
                      }
                    }
                  }
                  JOINT RightHandRing1
                  {
                    OFFSET -2.88569 -0.067952 -0.308858
                    CHANNELS 3 Zrotation Yrotation Xrotation
                    JOINT RightHandRing2
                    {
                      OFFSET -5.854198 -0.48613 -1.373731
                      CHANNELS 3 Zrotation Yrotation Xrotation
                      JOINT RightHandRing3
                      {
                        OFFSET -4.33881 -4e-06 -0.0
                        CHANNELS 3 Zrotation Yrotation Xrotation
                        JOINT RightHandRing4
                        {
                          OFFSET -2.654903 -4e-06 4e-06
                          CHANNELS 3 Zrotation Yrotation Xrotation
                          JOINT RightHandRingEnd
                          {
                            OFFSET -1.933568 0.077527 -5.2e-05
                            CHANNELS 3 Zrotation Yrotation Xrotation
                          }
                        }
                      }
                    }
                  }
                  JOINT RightHandPinky1
                  {
                    OFFSET -2.866425 -0.342796 -1.584145
                    CHANNELS 3 Zrotation Yrotation Xrotation
                    JOINT RightHandPinky2
                    {
                      OFFSET -5.091371 -1.332055 -1.772385
                      CHANNELS 3 Zrotation Yrotation Xrotation
                      JOINT RightHandPinky3
                      {
                        OFFSET -3.062664 -4e-06 1e-06
                        CHANNELS 3 Zrotation Yrotation Xrotation
                        JOINT RightHandPinky4
                        {
                          OFFSET -1.546529 4e-06 -2e-06
                          CHANNELS 3 Zrotation Yrotation Xrotation
                          JOINT RightHandPinkyEnd
                          {
                            OFFSET -1.945119 -0.157718 0.057211
                            CHANNELS 3 Zrotation Yrotation Xrotation
                          }
                        }
                      }
                    }
                  }
                }
              }
            }
          }
        }
      }
    }
    JOINT LeftLeg
    {
      OFFSET 10.043214 -8.434526 2.595655
      CHANNELS 3 Zrotation Yrotation Xrotation
      JOINT LeftShin
      {
        OFFSET -1e-06 -43.221752 -0.802913
        CHANNELS 3 Zrotation Yrotation Xrotation
        JOINT LeftFoot
        {
          OFFSET 1e-06 -42.155094 -3.481523
          CHANNELS 3 Zrotation Yrotation Xrotation
          JOINT LeftToeBase
          {
            OFFSET 0.0 -5.059472 13.231529
            CHANNELS 3 Zrotation Yrotation Xrotation
            JOINT LeftToeEnd
            {
              OFFSET -0.009607 -1.647619 6.513017
              CHANNELS 3 Zrotation Yrotation Xrotation
            }
          }
        }
      }
    }
    JOINT RightLeg
    {
      OFFSET -10.047278 -8.29526 2.620317
      CHANNELS 3 Zrotation Yrotation Xrotation
      JOINT RightShin
      {
        OFFSET 1e-06 -43.362206 -0.805556
        CHANNELS 3 Zrotation Yrotation Xrotation
        JOINT RightFoot
        {
          OFFSET 2e-06 -42.117393 -3.478398
          CHANNELS 3 Zrotation Yrotation Xrotation
          JOINT RightToeBase
          {
            OFFSET -0.0 -5.079609 13.284196
            CHANNELS 3 Zrotation Yrotation Xrotation
            JOINT RightToeEnd
            {
              OFFSET 0.009532 -1.634378 6.460591
              CHANNELS 3 Zrotation Yrotation Xrotation
            }
          }
        }
      }
    }
  }
}
MOTION
Frames: 4
Frame Time: 0.03333333333333333
-0.027032 0.0 -0.817005 0.0 -0.00754 0.0 0.0 99.221352 0.0 0.319462 0.011563 -2.073776 0.78956 -0.053528 -2.980518 -0.332633 -0.168215 -6.099916 -1.421152 -1.920499 13.129749 -5.45593 5.722647 9.310066 0.649216 4.985788 -3.656978 0.316407 5.039664 -5.356554 7.7e-05 -2.2e-05 6e-06 0.044185 -0.09783 -0.059026 0.796335 -3.811702 -10.631947 -0.711832 3.631828 -10.588214 -20.371687 -4.082492 16.538752 -57.7071 -4.737285 4.391376 0.326396 -27.560102 -0.059501 -5.01293 -2.793557 -3.412251 -5.882114 9.861297 0.702592 -10.936885 -0.360574 7.156213 1e-06 8.774835 -1e-06 -16.21697 17.84487 6.029537 -1.844035 2.498507 -2.507281 -10.163614 4.678951 4.621112 -20.976053 -3e-06 2e-06 -21.22632 2.451701 -3.594004 -0.0 -7e-06 0.0 -1.362684 2.240801 -0.746324 -21.334946 0.58491 3.008326 -13.821235 -3e-06 2e-06 -23.887205 -0.249081 -0.839487 -60.572414 2.59624 -1.220889 -0.294025 1.679691 0.833257 -14.218229 0.093215 1.300581 -34.212105 -0.287566 0.96717 -20.033241 0.964538 1.212844 1e-06 -1e-06 -1e-06 -3.440393 0.788235 0.501656 -15.928208 -3.167314 2.999709 -6.338834 0.0 1e-06 -18.123476 3.648187 -4.905679 -3e-06 0.0 -2e-06 20.737043 7.891758 19.312883 55.215481 10.621384 15.942927 0.137616 28.851118 0.103673 5.492016 0.169838 -4.466506 2.243544 -5.255041 -3.180158 14.2829 -0.826596 6.952506 -1e-06 -12.690615 -1e-06 16.066002 -17.657242 2.514636 1.665667 -1.955923 -2.878301 4.727802 -4.170592 4.993927 11.020535 3e-06 -1e-06 12.10906 -3.73572 -2.866786 -1e-06 -0.0 0.0 1.291987 -1.92855 -1.49809 14.800138 0.567468 3.865609 14.242582 -1.341739 -6.660665 19.631979 0.143925 -0.648246 49.468903 -0.454828 -6.54179 0.353029 -1.511152 -0.031941 20.222803 3.684312 2.31663 18.787287 4e-06 -2e-06 10.751636 -0.479869 1.397906 0.0 -0.0 1e-06 3.273808 0.305948 -0.580113 21.48683 11.830386 2.266134 8.162932 0.0 -1e-06 18.399099 -3.798988 -4.940581 5e-06 1e-06 -3e-06 6.061015 12.633937 1.959067 -0.011386 -0.120262 10.497408 -7.246618 1.761439 -9.11659 1.645493 -1.93727 -2.257703 -0.0 0.0 2e-06 -7.293253 -7.025706 0.342305 -0.016229 0.020604 11.367944 8.770285 -4.45799 -8.853171 -1.410758 0.95312 -1.894026 0.0 -0.0 -1e-06 
0.011456 0.0 -0.792108 0.0 0.045255 0.0 0.0 99.233963 0.0 0.325692 0.011985 -2.102188 0.87815 -0.073395 -3.034675 -0.284851 -0.090294 -6.119676 -1.419906 -1.928203 13.057241 -6.878902 6.573157 9.780253 0.74426 5.181486 -3.67043 -0.093673 5.607471 -4.548589 7.7e-05 -2.3e-05 6e-06 0.043605 -0.04555 -0.057913 0.787842 -3.758024 -10.628872 -0.705921 3.683325 -10.578192 -20.433977 -4.026697 16.553186 -57.782433 -4.765288 4.359149 0.184037 -27.670414 -0.066322 -4.931408 -2.732489 -3.001558 -5.882108 9.861288 0.702591 -10.936875 -0.360576 7.156207 1e-06 8.774826 -2e-06 -16.176193 17.858784 6.011819 -1.844033 2.498504 -2.507279 -10.163603 4.678944 4.621109 -20.976028 -5e-06 4e-06 -21.226292 2.451697 -3.594 -0.0 -6e-06 0.0 -1.362682 2.240798 -0.746323 -21.334923 0.584908 3.008322 -13.821219 -4e-06 1e-06 -23.887178 -0.249079 -0.839482 -60.448193 2.639327 -1.205909 -0.294025 1.679687 0.833258 -14.218214 0.093215 1.30058 -34.212063 -0.287567 0.967171 -20.033224 0.964535 1.212845 1e-06 -1e-06 -2e-06 -3.440389 0.788232 0.501655 -15.928192 -3.167311 2.999707 -6.338828 -0.0 1e-06 -18.123453 3.64818 -4.905672 -2e-06 0.0 -2e-06 20.479254 7.864299 19.380566 55.311329 10.571137 15.872828 0.163286 28.77627 0.10208 5.427424 0.245814 -4.879069 2.243543 -5.255039 -3.18016 14.282901 -0.826595 6.952505 -2e-06 -12.69061 -1e-06 16.093725 -17.696722 2.471484 1.665667 -1.955923 -2.8783 4.727801 -4.17059 4.993926 11.020535 4e-06 -2e-06 12.10906 -3.735717 -2.866787 -1e-06 -0.0 1e-06 1.291987 -1.92855 -1.498088 14.80014 0.567469 3.865609 14.242582 -1.341737 -6.66066 19.631983 0.143926 -0.648246 49.542343 -0.46071 -6.562812 0.353029 -1.511151 -0.031941 20.222803 3.684311 2.316627 18.787289 6e-06 -2e-06 10.751634 -0.479869 1.397905 2e-06 1e-06 -1e-06 3.27381 0.305947 -0.580111 21.486828 11.830381 2.266131 8.162933 2e-06 -2e-06 18.399096 -3.798987 -4.940578 3e-06 0.0 -1e-06 6.045721 12.648562 2.083723 -0.024999 -0.159519 10.322991 -7.26486 1.701616 -9.049972 1.650132 -1.980311 -2.2912 0.0 0.0 2e-06 -7.303077 -6.917773 0.510441 -0.035686 0.015067 11.139068 8.735584 -4.570193 -8.77689 -1.417024 0.927748 -1.891803 0.0 -0.0 -1e-06 
0.043436 0.0 -0.773892 0.0 0.077797 0.0 0.0 99.229797 0.0 0.34498 0.012828 -2.120974 0.986042 -0.113262 -3.097225 -0.233635 -0.053735 -6.152154 -1.396222 -1.909864 12.999705 -8.625622 7.625132 10.220298 0.892589 5.549275 -3.711712 -0.572494 6.461792 -3.371515 7.7e-05 -2.3e-05 6e-06 0.049937 -0.016312 -0.064341 0.791955 -3.725835 -10.646017 -0.699073 3.710199 -10.584176 -20.442188 -3.979592 16.538305 -57.940865 -4.719371 4.35427 0.06838 -27.734892 -0.084342 -4.862601 -2.666622 -2.6854 -5.882105 9.861284 0.702592 -10.936868 -0.360575 7.156204 -0.0 8.774824 -1e-06 -16.16902 17.927366 5.999741 -1.844032 2.498503 -2.507278 -10.163597 4.678944 4.621106 -20.976021 -3e-06 1e-06 -21.226286 2.451696 -3.594 -0.0 -6e-06 0.0 -1.362681 2.240797 -0.746323 -21.334911 0.584908 3.008322 -13.82121 -2e-06 0.0 -23.887167 -0.24908 -0.839483 -60.385281 2.679982 -1.284233 -0.294025 1.679686 0.833255 -14.218206 0.093215 1.300581 -34.212048 -0.287563 0.96717 -20.033211 0.964537 1.212844 -0.0 -0.0 -3e-06 -3.440388 0.788232 0.501654 -15.928183 -3.167309 2.999708 -6.338824 -1e-06 1e-06 -18.123444 3.648181 -4.90567 -3e-06 -0.0 -2e-06 20.142262 7.897392 19.397123 55.437374 10.454432 15.842094 0.221042 28.751535 0.114138 5.272773 0.289388 -5.279064 2.243541 -5.255037 -3.180158 14.282887 -0.826595 6.952503 -2e-06 -12.690603 -2e-06 16.118818 -17.6994 2.448082 1.665666 -1.955922 -2.878299 4.727798 -4.170587 4.993924 11.020524 3e-06 0.0 12.109051 -3.735715 -2.866783 -1e-06 -1e-06 1e-06 1.291985 -1.928549 -1.49809 14.800125 0.567466 3.865608 14.242568 -1.341737 -6.660655 19.631962 0.143926 -0.648243 49.5485 -0.491067 -6.600914 0.353029 -1.51115 -0.031938 20.222786 3.684309 2.316633 18.78727 4e-06 1e-06 10.751625 -0.479869 1.397908 2e-06 0.0 -1e-06 3.273806 0.305947 -0.58011 21.486805 11.830372 2.266136 8.162924 0.0 1e-06 18.399076 -3.798984 -4.940573 5e-06 0.0 -2e-06 6.012954 12.672091 2.109234 -0.02349 -0.182751 10.327331 -7.261666 1.622202 -9.062894 1.653026 -2.010718 -2.248135 -0.0 -0.0 2e-06 -7.331166 -6.810203 0.550779 -0.041852 0.000184 11.134975 8.732039 -4.70071 -8.804774 -1.418059 0.917863 -1.846183 0.0 0.0 -1e-06 
0.065261 0.0 -0.766712 0.0 0.07615 0.0 0.0 99.222534 0.0 0.36465 0.013665 -2.138031 1.085796 -0.157991 -3.132579 -0.181748 -0.031781 -6.17937 -1.365609 -1.863085 12.928588 -10.445248 8.735456 10.588857 1.059945 6.038038 -3.747563 -1.041853 7.434676 -2.154534 7.7e-05 -2.2e-05 6e-06 0.058125 -0.002784 -0.069559 0.801415 -3.709897 -10.665455 -0.693825 3.721639 -10.594014 -20.388054 -3.929076 16.491257 -58.127293 -4.670469 4.524745 0.004713 -27.687254 -0.082783 -4.727613 -2.645886 -2.369876 -5.882106 9.861286 0.702591 -10.936872 -0.360575 7.156205 1e-06 8.774826 -2e-06 -16.184809 17.967413 5.995049 -1.844032 2.498505 -2.507277 -10.163601 4.678945 4.621108 -20.976023 -3e-06 1e-06 -21.226288 2.451696 -3.594 -0.0 -7e-06 0.0 -1.362682 2.240798 -0.746322 -21.334913 0.58491 3.008322 -13.821213 -3e-06 1e-06 -23.887167 -0.24908 -0.839484 -60.382862 2.697737 -1.348659 -0.294025 1.679687 0.833256 -14.218208 0.093215 1.300581 -34.212051 -0.287563 0.967171 -20.033213 0.964536 1.212844 1e-06 0.0 -1e-06 -3.440388 0.788233 0.501656 -15.928185 -3.16731 2.999707 -6.338827 -0.0 -1e-06 -18.123446 3.648183 -4.905671 -1e-06 1e-06 -2e-06 19.696463 7.973312 19.388475 55.64529 10.33755 16.0348 0.206274 28.794476 0.103754 5.156876 0.261272 -5.617383 2.243542 -5.255037 -3.180158 14.282893 -0.826594 6.952504 -3e-06 -12.690607 0.0 16.133329 -17.699913 2.449169 1.665667 -1.955922 -2.8783 4.727798 -4.170588 4.993925 11.020527 4e-06 0.0 12.109055 -3.735715 -2.866787 -1e-06 -1e-06 1e-06 1.291986 -1.928549 -1.498088 14.800131 0.567469 3.865607 14.242574 -1.341734 -6.660659 19.631973 0.14393 -0.648246 49.520851 -0.5493 -6.620642 0.353029 -1.51115 -0.031941 20.222797 3.68431 2.316629 18.787273 4e-06 -0.0 10.75163 -0.479868 1.397905 1e-06 0.0 -1e-06 3.273808 0.305946 -0.580112 21.486816 11.830379 2.266129 8.16293 3e-06 -1e-06 18.399084 -3.798985 -4.940578 5e-06 1e-06 -2e-06 5.984383 12.703042 2.114725 -0.018846 -0.19142 10.367738 -7.239181 1.578493 -9.08892 1.653403 -2.022388 -2.198812 0.0 -0.0 2e-06 -7.363376 -6.736712 0.541503 -0.042789 -0.027077 11.200253 8.756249 -4.768095 -8.848114 -1.415914 0.910642 -1.821683 0.0 0.0 -1e-06 
